PathFileType	4	(X/Y/Z)	 s11c0001.trc
DataRate	CameraRate	NumFrames	NumMarkers	Units	OrigDataRate	OrigDataStartFrame	OrigNumFrames
200	200	6	49	mm	200	1251	2000
Frame#	Time	racr			lacr			c7			jug			rlel			rdr			llel			ldr			s2			lic			ric			lasi			rasi			rpsi			lpsi			rgt			lgt			rth1			rth2			rth3			rth4			rlfc			rmfc			rsh1			rsh2			rsh3			rsh4			rlmal			rmmal			rcal			rtoe			rmt5			rmt1			lth1			lth2			lth4			lth3			llfc			lmfc			llmal			lmmal			lcal			lmt1			lmt5			lsh1			lsh2			lsh3			lsh4			ltoe			
		X1	Y1	Z1	X2	Y2	Z2	X3	Y3	Z3	X4	Y4	Z4	X5	Y5	Z5	X6	Y6	Z6	X7	Y7	Z7	X8	Y8	Z8	X9	Y9	Z9	X10	Y10	Z10	X11	Y11	Z11	X12	Y12	Z12	X13	Y13	Z13	X14	Y14	Z14	X15	Y15	Z15	X16	Y16	Z16	X17	Y17	Z17	X18	Y18	Z18	X19	Y19	Z19	X20	Y20	Z20	X21	Y21	Z21	X22	Y22	Z22	X23	Y23	Z23	X24	Y24	Z24	X25	Y25	Z25	X26	Y26	Z26	X27	Y27	Z27	X28	Y28	Z28	X29	Y29	Z29	X30	Y30	Z30	X31	Y31	Z31	X32	Y32	Z32	X33	Y33	Z33	X34	Y34	Z34	X35	Y35	Z35	X36	Y36	Z36	X37	Y37	Z37	X38	Y38	Z38	X39	Y39	Z39	X40	Y40	Z40	X41	Y41	Z41	X42	Y42	Z42	X43	Y43	Z43	X44	Y44	Z44	X45	Y45	Z45	X46	Y46	Z46	X47	Y47	Z47	X48	Y48	Z48	X49	Y49	Z49	
1251	6.2550	483.692192	1571.785369	591.299657	454.717830	1596.240302	177.901746	388.561387	1620.197959	384.579514	551.960184	1561.132707	366.936652	484.505091	1313.527364	741.927164	614.251981	1087.088195	888.468556	426.247873	1300.981488	48.081134	551.149946	1062.232507	-129.541298	341.421482	1075.281850	392.909640	510.763020	1162.764794	175.612815	553.796130	1152.051569	566.577325	577.570831	1109.243729	205.069591	609.621800	1112.119405	520.916999	363.193791	1130.317145	447.473440	349.995080	1127.182715	344.719645	506.964503	960.975785	588.623013	443.400091	991.892754	174.033189	516.877904	833.541327	585.672229	537.146396	750.571647	560.228393	513.250919	668.618224	541.860221	571.064184	753.402219	547.839051	508.784827	562.946282	516.598580	503.454590	545.702645	396.884023	463.323334	413.843071	538.881377	478.348650	327.512439	524.961491	448.505398	244.908461	524.785347	504.577012	327.211051	495.881638	431.524816	108.638135	513.453054	463.368707	122.741455	425.945137	386.726393	80.283532	459.320453	667.365315	91.366794	518.992798	590.936266	54.216672	573.936904	609.832074	58.600316	458.480562	472.536987	858.901904	154.091967	491.870018	776.767556	168.958467	528.146855	775.420566	174.560219	465.691629	692.203788	183.146573	460.543048	550.325865	213.087327	474.550761	540.240960	339.246704	405.798720	117.411641	223.460194	436.705867	133.593254	297.684228	369.110613	68.571744	259.877586	592.870569	56.155225	292.013932	569.950521	55.365247	174.991315	423.397658	427.304229	192.214867	441.906066	343.446563	199.272080	416.246879	258.884824	202.851955	473.734981	343.962234	221.615307	660.179923	95.637102	243.999659	
1252	6.2600	483.696940	1571.805497	591.273165	454.749345	1596.236394	177.912265	388.567158	1620.202739	384.548434	551.952698	1561.131288	366.930887	484.534776	1313.575738	741.935271	614.295322	1087.128906	888.467896	426.253576	1300.991905	48.084875	551.196809	1062.219106	-129.531613	341.398750	1075.306421	392.913291	510.789767	1162.771192	175.625349	553.795275	1152.050981	566.575269	577.589299	1109.255208	205.098193	609.640905	1112.117865	520.927340	363.191530	1130.330798	447.472863	349.991919	1127.157806	344.726509	506.970485	960.984804	588.623895	443.407332	991.892004	174.034465	516.881312	833.536210	585.679088	537.138878	750.565664	560.227763	513.237326	668.622860	541.867411	571.059888	753.394607	547.830053	508.814052	562.944176	516.608493	503.485497	545.700649	396.898940	463.320039	413.847177	538.890431	478.360055	327.518609	524.949066	448.502976	244.923523	524.787844	504.567078	327.198485	495.874324	431.543638	108.640610	513.454035	463.363811	122.752798	425.939401	386.741181	80.292824	459.300741	667.378547	91.363633	518.998993	590.902740	54.211188	573.951390	609.839681	58.614370	458.490951	472.535200	858.903396	154.081127	491.884691	776.768409	168.953705	528.162093	775.418543	174.584724	465.701335	692.191886	183.146834	460.566465	550.325035	213.089021	474.524067	540.232435	339.263530	405.815981	117.422260	223.484897	436.713469	133.585827	297.686286	369.124911	68.574278	259.897651	592.863304	56.150627	292.012082	569.948753	55.369704	174.978175	423.370682	427.305216	192.196002	441.941845	343.446732	199.286880	416.256242	258.873933	202.882393	473.739640	343.946916	221.646990	660.177196	95.623782	243.999589	
1253	6.2650	483.708998	1571.806158	591.251017	454.733306	1596.223984	177.876258	388.568255	1620.198598	384.545834	551.960887	1561.146379	366.908271	484.567290	1313.580409	741.938788	614.348368	1087.203763	888.505011	426.257598	1300.977579	48.070243	551.206320	1062.224328	-129.512125	341.384382	1075.292922	392.929245	510.785466	1162.766158	175.630143	553.745201	1152.053536	566.542429	577.578647	1109.255165	205.090080	609.640913	1112.117859	520.927348	363.199271	1130.330158	447.441401	349.986849	1127.162118	344.750907	506.964202	960.986140	588.621405	443.407036	991.888469	174.028276	516.877737	833.542408	585.677577	537.143885	750.574363	560.230751	513.233682	668.637588	541.881607	571.045463	753.408833	547.836195	508.834465	562.970105	516.625789	503.486687	545.696755	396.898727	463.320674	413.846794	538.890882	478.385491	327.531815	524.973053	448.504907	244.911444	524.775417	504.567761	327.207396	495.879690	431.501340	108.594575	513.445744	463.387393	122.754076	425.943180	386.743127	80.253628	459.308986	667.371704	91.353731	519.003853	590.920792	54.213391	573.939642	609.831103	58.600352	458.472148	472.535347	858.900919	154.096696	491.899887	776.759356	168.982385	528.162093	775.418539	174.584724	465.700634	692.206271	183.161276	460.556370	550.322338	213.106416	474.525143	540.231070	339.265749	405.816927	117.414727	223.485581	436.716101	133.589211	297.693932	369.122990	68.565812	259.896568	592.856011	56.161399	292.012286	569.952207	55.368198	174.973808	423.385051	427.307615	192.198746	441.936187	343.439667	199.286698	416.292033	258.867679	202.883329	473.735479	343.950577	221.613337	660.173507	95.623186	243.993980	
1254	6.2700	483.702245	1571.823007	591.243200	454.748059	1596.230987	177.858982	388.579682	1620.213736	384.482772	551.961607	1561.153434	366.875756	484.585300	1313.608181	741.920144	614.385233	1087.232659	888.492528	426.260153	1300.966678	48.092531	551.223093	1062.211667	-129.503544	341.422699	1075.281286	392.894042	510.785646	1162.786314	175.627428	553.734220	1152.073682	566.550652	577.562193	1109.243293	205.092028	609.619917	1112.131043	520.916929	363.191530	1130.330797	447.472863	349.976501	1127.175591	344.739254	506.960648	960.982836	588.607916	443.398281	991.897798	174.027694	516.868896	833.545373	585.678260	537.136091	750.578711	560.222892	513.234551	668.621310	541.855866	571.048766	753.406173	547.825524	508.818230	562.958845	516.618744	503.455335	545.700030	396.892648	463.316258	413.857242	538.888968	478.369972	327.511540	524.965430	448.506418	244.916346	524.783417	504.551560	327.207045	495.887101	431.518427	108.632052	513.444539	463.371074	122.738005	425.945718	386.743366	80.287012	459.313123	667.359252	91.356308	518.992589	590.937668	54.219817	573.943115	609.816813	58.616160	458.487902	472.529412	858.896248	154.107620	491.871371	776.774373	168.983298	528.162539	775.410598	174.580828	465.700178	692.194920	183.145511	460.573519	550.335243	213.098298	474.522998	540.233779	339.261336	405.816343	117.411142	223.467913	436.713471	133.585822	297.686290	369.128166	68.560685	259.894719	592.858133	56.148511	292.011663	569.962057	55.376580	175.002767	423.397369	427.318235	192.207740	441.930781	343.447018	199.281447	416.265973	258.887110	202.862970	473.742149	343.961408	221.618680	660.189485	95.632233	244.016479	
1255	6.2750	483.708094	1571.847963	591.214201	454.718232	1596.238181	177.844029	388.573789	1620.214711	384.512923	551.965505	1561.169782	366.852211	484.611065	1313.644036	741.936101	614.432663	1087.274752	888.498866	426.260909	1300.940889	48.066759	551.240037	1062.196492	-129.479970	341.419046	1075.287551	392.898090	510.765895	1162.774979	175.637058	553.717223	1152.081776	566.523148	577.552096	1109.258031	205.112439	609.617647	1112.153378	520.907499	363.170193	1130.329844	447.461417	349.986994	1127.185831	344.742041	506.941368	960.991462	588.622037	443.400778	991.899507	174.014794	516.865900	833.545618	585.672444	537.141876	750.578797	560.231161	513.231729	668.616566	541.856721	571.058876	753.395545	547.815587	508.979441	563.086725	516.657007	503.486026	545.694929	396.900763	463.312755	413.843600	538.882201	478.368349	327.511759	524.958010	448.499081	244.920913	524.791071	504.568347	327.216106	495.906438	431.514670	108.645921	513.447209	463.384044	122.737544	425.949917	386.746831	80.269924	459.292920	667.372926	91.358611	519.002597	590.936987	54.221731	573.942416	609.830500	58.598188	458.474772	472.533902	858.892235	154.101035	491.885127	776.759308	168.986198	528.146343	775.427538	174.556262	465.702253	692.201326	183.148600	460.567118	550.321254	213.093701	474.522453	540.234605	339.269146	405.800271	117.426024	223.456269	436.716372	133.589867	297.693251	369.125028	68.564556	259.891900	592.856526	56.142956	292.014655	569.953047	55.369875	174.971020	423.389378	427.318420	192.191421	441.926118	343.453076	199.285142	416.260721	258.889770	202.867617	473.733224	343.971373	221.619186	660.175866	95.614890	243.994622	
1256	6.2800	483.735534	1571.859086	591.196364	454.741744	1596.241970	177.826578	388.586197	1620.215738	384.448472	551.990000	1561.169608	366.845143	484.629302	1313.683006	741.929945	614.458854	1087.309616	888.498411	426.280606	1300.956920	48.082996	551.290970	1062.170914	-129.464481	341.397739	1075.304516	392.903207	510.750828	1162.839303	175.640179	553.744438	1152.093998	566.522403	577.550870	1109.266556	205.114439	609.616342	1112.166167	520.912251	363.167693	1130.366696	447.457783	349.989298	1127.172939	344.742872	506.937449	960.996253	588.615489	443.406322	991.901479	174.018847	516.869768	833.545826	585.683185	537.131653	750.573241	560.237187	513.226687	668.626335	541.849562	571.048639	753.393305	547.824488	508.989983	563.093094	516.656751	503.486020	545.710317	396.896479	463.312526	413.852017	538.896138	478.421172	327.555755	524.998171	448.501060	244.919104	524.784961	504.558981	327.212183	495.870643	431.525699	108.633564	513.459085	463.371713	122.732577	425.935138	386.757963	80.265564	459.303837	667.369097	91.360180	519.007662	590.934922	54.216357	573.940532	609.807884	58.594180	458.478000	472.524933	858.893727	154.108630	491.870464	776.761528	168.962383	528.164987	775.410095	174.617610	465.694081	692.198198	183.145439	460.576976	550.322746	213.105085	474.525508	540.236468	339.260029	405.814588	117.424289	223.476550	436.700648	133.596492	297.686264	369.139770	68.573679	259.893709	592.870427	56.166814	292.012541	569.945714	55.370171	174.981081	423.399491	427.323494	192.201178	441.939385	343.443170	199.293843	416.284202	258.880851	202.875303	473.742061	343.958628	221.634875	660.176693	95.632840	243.999985	
